<?xml version="1.0" encoding="UTF-8"?>
<svg version="1.1" xmlns="http://www.w3.org/2000/svg" width="1200" height="1217">
<path d="M0 0 C3.24262393 1.26907007 5.79750815 3.14217906 8.53515625 5.2421875 C47.53507126 33.91659965 93.56869525 54.0369559 141.53515625 60.9921875 C142.6658252 61.16572754 142.6658252 61.16572754 143.81933594 61.34277344 C214.71357599 71.90949564 288.7046098 45.636678 345.78515625 4.4921875 C346.41019043 4.01716797 347.03522461 3.54214844 347.67919922 3.05273438 C350.17365969 1.22564843 351.89620381 0.00713959 355.0390625 -0.06640625 C358.40034964 1.35911615 361.26365899 3.32502083 364.22265625 5.4296875 C405.84782039 33.99739114 455.71429631 49.36183125 505.53515625 54.9921875 C506.29546143 55.08790039 507.0557666 55.18361328 507.83911133 55.28222656 C518.04203339 56.41509504 528.34568384 56.23615356 538.59765625 56.2421875 C539.62604614 56.24286224 540.65443604 56.24353699 541.71398926 56.24423218 C557.53180886 56.22775464 572.91107118 55.65907962 588.53515625 52.9921875 C589.58396973 52.82058105 590.6327832 52.64897461 591.71337891 52.47216797 C611.85597604 49.11556839 632.0397233 44.45517049 650.9609375 36.64453125 C653.53515625 35.9921875 653.53515625 35.9921875 655.53613281 36.74633789 C657.67670973 38.08040775 658.68478539 39.20024266 660.09375 41.2734375 C660.55515381 41.94109131 661.01655762 42.60874512 661.49194336 43.29663086 C661.98057861 44.02116455 662.46921387 44.74569824 662.97265625 45.4921875 C664.04454358 47.04628337 665.11749532 48.59964553 666.19140625 50.15234375 C667.01898437 51.35528076 667.01898437 51.35528076 667.86328125 52.58251953 C670.51397611 56.40295737 673.24162731 60.16645865 675.97265625 63.9296875 C677.06122648 65.43357307 678.14976798 66.93747945 679.23828125 68.44140625 C679.78033203 69.1895459 680.32238281 69.93768555 680.88085938 70.70849609 C683.66433827 74.55097862 686.44390078 78.39628826 689.22265625 82.2421875 C689.75713379 82.98186768 690.29161133 83.72154785 690.84228516 84.48364258 C695.76531978 91.30172075 700.65652862 98.14228596 705.53515625 104.9921875 C701.91183262 110.87109007 698.14404389 116.56537945 694.03515625 122.1171875 C645.50160255 188.9383356 621.83444742 272.55673554 634.11010742 354.52392578 C639.06965588 385.1351523 648.5800166 414.2067614 661.36083984 442.40136719 C662.41683353 444.73113953 663.45596692 447.06764344 664.4921875 449.40625 C676.59728307 476.31955164 692.95572471 501.3735635 710.53515625 524.9921875 C711.58992799 526.42051071 712.644616 527.84889576 713.69921875 529.27734375 C719.44112976 537.02310686 725.33175449 544.60769209 731.53515625 551.9921875 C731.96683105 552.5087793 732.39850586 553.02537109 732.84326172 553.55761719 C738.30539712 560.09201417 743.85773301 566.5201086 749.5859375 572.82421875 C751.98057268 575.48759054 754.2713975 578.21725742 756.53515625 580.9921875 C754.9833414 584.87603156 752.56977001 586.97306063 749.44287109 589.69262695 C748.37066068 590.63758194 747.29929427 591.58349524 746.22865295 592.53022766 C745.66122942 593.02961664 745.09380589 593.52900562 744.5091877 594.0435276 C714.00375671 618.28018899 714.00375671 618.28018899 697.91687012 651.35830688 C697.91336993 657.67416013 698.96415033 663.97088958 700.27600098 670.13607788 C701.9425722 678.01264104 701.57052524 685.48478564 700.96191406 693.47000122 C700.78629997 695.78958078 700.64103616 698.10925017 700.50390625 700.43139648 C695.52937539 782.17625835 672.22314121 864.87441191 622.53515625 930.9921875 C622.08221191 931.59530762 621.62926758 932.19842773 621.16259766 932.81982422 C606.73596782 951.87376574 590.63292944 970.36371324 572.53515625 985.9921875 C571.79910156 986.67796875 571.06304688 987.36375 570.3046875 988.0703125 C563.16862195 994.71629649 555.46743874 1000.55613356 547.66943359 1006.39306641 C545.69805222 1007.87013664 543.73523609 1009.35790076 541.7734375 1010.84765625 C477.90500089 1058.9535522 398.77207334 1085.55676809 320.41015625 1097.6796875 C319.74611786 1097.78314484 319.08207947 1097.88660217 318.3979187 1097.99319458 C310.03040536 1099.27565488 301.6885991 1100.18199845 293.24609375 1100.80078125 C291.48840037 1100.94061462 289.73075033 1101.08099383 287.97314453 1101.22192383 C284.60484916 1101.49087353 281.24151296 1101.69371028 277.86669922 1101.8581543 C265.85488179 1102.66089293 259.89486261 1106.56149538 251.53515625 1114.9921875 C249.84686412 1116.39172223 248.14213073 1117.77208818 246.41015625 1119.1171875 C241.07140188 1123.35196681 235.80316676 1127.66990679 230.53515625 1131.9921875 C228.70205463 1133.49247067 226.86872198 1134.99247158 225.03515625 1136.4921875 C224.12765625 1137.2346875 223.22015625 1137.9771875 222.28515625 1138.7421875 C203.03515625 1154.4921875 203.03515625 1154.4921875 200.29296875 1156.734375 C198.43174097 1158.25815638 196.57240795 1159.78425466 194.71484375 1161.3125 C192.87372148 1162.82539991 191.02750953 1164.33213134 189.17578125 1165.83203125 C187.43501742 1167.25605847 185.71535319 1168.70633271 184.01953125 1170.18359375 C182.85164062 1171.17166016 182.85164062 1171.17166016 181.66015625 1172.1796875 C180.98210938 1172.77136719 180.3040625 1173.36304688 179.60546875 1173.97265625 C177.53515625 1174.9921875 177.53515625 1174.9921875 175.1953125 1174.51953125 C171.6982683 1172.51168355 168.84686359 1170.04672624 165.84765625 1167.3671875 C164.59221436 1166.26830928 163.3357007 1165.17065435 162.078125 1164.07421875 C161.16426025 1163.27491943 161.16426025 1163.27491943 160.23193359 1162.45947266 C157.31541449 1159.93741801 154.29318473 1157.55531786 151.26953125 1155.1640625 C147.79470486 1152.40405754 144.35224655 1149.60534596 140.91015625 1146.8046875 C140.22711426 1146.24918213 139.54407227 1145.69367676 138.84033203 1145.12133789 C137.43740819 1143.9802561 136.03457703 1142.83906034 134.63183594 1141.69775391 C131.2675291 1138.9610227 127.90126045 1136.22670742 124.53515625 1133.4921875 C123.2083284 1132.41406857 121.8815055 1131.33594355 120.5546875 1130.2578125 C117.82333503 1128.03854689 115.09150729 1125.819868 112.359375 1123.6015625 C111.66650391 1123.03888672 110.97363281 1122.47621094 110.25976562 1121.89648438 C108.96562735 1120.84553987 107.67137027 1119.79474163 106.37695312 1118.74414062 C105.77302734 1118.25365234 105.16910156 1117.76316406 104.546875 1117.2578125 C103.8986377 1116.75362793 103.25040039 1116.24944336 102.58251953 1115.72998047 C100.53515625 1113.9921875 100.53515625 1113.9921875 98.53076172 1111.72705078 C89.83848789 1102.79852447 78.83777208 1102.84886265 67.00125122 1101.72268677 C60.68470558 1101.11841606 54.38291031 1100.38305126 48.078125 1099.66796875 C46.19793922 1099.45994881 46.19793922 1099.45994881 44.2797699 1099.24772644 C33.64636469 1098.05645703 23.11891813 1096.49564039 12.59765625 1094.5546875 C11.81894165 1094.41107788 11.04022705 1094.26746826 10.23791504 1094.11950684 C-53.98565768 1082.12095974 -118.1732022 1061.38851827 -173.46484375 1025.9921875 C-174.13467285 1025.56631348 -174.80450195 1025.14043945 -175.49462891 1024.70166016 C-192.38572853 1013.89994723 -208.33607043 1001.60240862 -223.14453125 988.09375 C-225.15882106 986.26935956 -227.20632989 984.50124948 -229.27734375 982.7421875 C-233.00623282 979.49077813 -236.52224838 976.04330827 -240.02734375 972.5546875 C-240.55755127 972.02907227 -241.08775879 971.50345703 -241.6340332 970.96191406 C-309.87167902 902.46145186 -340.0246873 805.5370865 -347.50262451 704.79681396 C-347.65428517 702.58892406 -347.83964582 700.38539001 -348.02587891 698.18017578 C-348.58544134 690.64816556 -348.60153236 683.78747033 -347.13317871 676.35206604 C-344.61300612 663.50966419 -342.09972975 648.86732777 -349.61464691 637.20832825 C-362.28312199 619.66239462 -379.71067196 604.87286174 -396.0408783 590.8343811 C-396.61594305 590.33252131 -397.1910078 589.83066153 -397.78349876 589.31359386 C-399.33298098 587.96404787 -400.89560636 586.6296341 -402.4591217 585.29637146 C-404.46484375 582.9921875 -404.46484375 582.9921875 -404.41575623 580.85145569 C-402.92878279 577.94405625 -400.71675798 575.75130294 -398.46484375 573.4296875 C-394.03682899 568.73715316 -389.87690204 563.91761676 -385.83203125 558.88671875 C-383.6588004 556.22935232 -381.43089699 553.63681458 -379.17382812 551.05126953 C-372.74100504 543.66673546 -366.78726207 536.00559122 -361.0078125 528.1015625 C-359.4380958 525.95562069 -357.85780103 523.81772703 -356.27734375 521.6796875 C-317.262804 468.60532416 -285.56961454 406.48270305 -279.46484375 339.9921875 C-279.38089355 339.09258301 -279.29694336 338.19297852 -279.21044922 337.26611328 C-278.45349423 328.46837351 -278.22220858 319.69275103 -278.21484375 310.8671875 C-278.21416901 310.13018616 -278.21349426 309.39318481 -278.21279907 308.6338501 C-278.3143824 238.01350282 -306.79406552 167.54782937 -349.390625 111.8203125 C-351.05763398 109.54740383 -352.26266279 107.51052898 -353.46484375 104.9921875 C-347.61328125 97.05078125 -341.76171875 89.109375 -335.91015625 81.16796875 C-335.34022949 80.39445068 -334.77030273 79.62093262 -334.18310547 78.82397461 C-333.03126465 77.26085558 -331.87924446 75.69786871 -330.72705078 74.13500977 C-327.7552354 70.10349337 -324.78680422 66.06955501 -321.82421875 62.03125 C-315.14425207 52.93273663 -308.40264218 43.89622834 -301.46484375 34.9921875 C-296.72024062 36.55400746 -291.99229788 38.15261371 -287.28515625 39.82421875 C-264.89308837 47.6761365 -242.0831328 52.6812418 -218.46484375 54.9921875 C-217.51319336 55.0864502 -216.56154297 55.18071289 -215.58105469 55.27783203 C-162.90133795 59.9270208 -108.30593194 52.4189742 -59.46484375 31.9921875 C-58.57732422 31.62254883 -57.68980469 31.25291016 -56.77539062 30.87207031 C-38.40340563 23.11749051 -20.86569401 13.57275907 -5.0234375 1.40625 C-2.46484375 -0.0078125 -2.46484375 -0.0078125 0 0 Z " fill="#EBBA00" transform="translate(423.46484375,24.0078125)"/>
<path d="M0 0 C300.63 0 601.26 0 911 0 C913.30553088 26.51360514 913.30553088 26.51360514 913.265625 37.23046875 C913.26849518 39.04155876 913.26849518 39.04155876 913.27142334 40.88923645 C913.27276287 43.39840915 913.26922624 45.90758933 913.26074219 48.41674805 C913.24998146 52.19400971 913.26073019 55.9707991 913.2734375 59.74804688 C913.28428265 78.44547173 912.00988957 96.62163228 908.8359375 115.046875 C908.24907065 118.49074775 907.69684761 121.93798062 907.1640625 125.390625 C896.8276908 190.69899221 865.21374534 249.73457777 818.875 296.375 C817.9689502 297.29039551 817.06290039 298.20579102 816.12939453 299.14892578 C810.06056859 305.1892132 803.71416778 310.69074652 797 316 C795.94006694 316.85802693 794.88016302 317.71608986 793.8203125 318.57421875 C718.68499148 377.4846661 618.39283808 404.1415483 497.98575902 406.46883965 C494.53849777 406.46871668 491.09127559 406.47740916 487.64402574 406.48561716 C479.47448784 406.50461038 471.30505193 406.50782544 463.13549805 406.50097656 C455.76946757 406.49509015 448.40380041 406.50922486 441.0378418 406.54199219 C362.65365939 406.88297476 362.65365939 406.88297476 326 401 C323.53706872 400.63114944 321.07387275 400.26405974 318.61035156 399.89916992 C313.04577507 399.06532962 307.52279901 398.07379325 302 397 C300.58243408 396.73002197 300.58243408 396.73002197 299.13623047 396.45458984 C275.33331933 391.87665274 251.97729919 385.70420461 229 378 C228.16984375 377.72720215 227.3396875 377.4544043 226.484375 377.17333984 C212.61444749 372.60727684 199.29703813 367.02035929 186 361 C185.1764502 360.63148926 184.35290039 360.26297852 183.50439453 359.88330078 C157.02347207 347.99001906 131.97920282 332.81174568 109.58154297 314.30517578 C108.53651521 313.4427617 107.48611402 312.58681329 106.43017578 311.73779297 C97.8453071 304.83228459 89.9920251 297.19915423 82.1875 289.4375 C81.69935822 288.95462524 81.21121643 288.47175049 80.70828247 287.97424316 C74.01117634 281.33308601 67.81801069 274.4283342 62 267 C61.40533936 266.24436768 60.81067871 265.48873535 60.19799805 264.71020508 C41.0029371 239.98308912 26.46039094 212.47253485 16.06494141 182.99267578 C15.31505261 180.88535417 14.54455793 178.78530857 13.75927734 176.69091797 C10.64041739 168.28073449 8.33281348 159.87376779 6.375 151.125 C6.07149313 149.7873072 5.76777996 148.44966119 5.46386719 147.11206055 C4.62748158 143.41132555 3.81163389 139.70624585 3 136 C2.81663086 135.17677246 2.63326172 134.35354492 2.44433594 133.50537109 C-2.35100237 111.69849248 -3.48558811 89.38611833 -3.33618164 67.12890625 C-3.31246577 63.36957387 -3.31567278 59.6109517 -3.32226562 55.8515625 C-3.30008834 37.09692268 -2.07036409 18.63327681 0 0 Z " fill="#080604" transform="translate(145,656)"/>
<path d="M0 0 C3.49574627 1.27904422 6.63228862 3.26084275 9.8449707 5.11865234 C40.26356813 22.27497862 71.52854694 33.0049197 105.98942566 38.26272583 C107.91255984 38.56666028 109.83325503 38.88686956 111.74984741 39.22964478 C119.28076227 40.57305645 126.75785578 41.34352088 134.38793945 41.84912109 C135.64076218 41.93300583 136.8935849 42.01689056 138.18437195 42.10331726 C152.2361916 42.97484494 166.27034137 43.09134029 180.3449707 43.05615234 C181.69249465 43.05572262 183.04001871 43.05556292 184.38754272 43.05566406 C205.87381518 43.04646021 227.14903145 42.05272068 248.53881836 40.02490234 C252.73051795 39.68745735 256.83099193 39.62971394 261.0324707 39.74365234 C260.68273193 40.37601807 260.33299316 41.00838379 259.97265625 41.65991211 C243.13585973 72.29257073 228.49076654 103.94464316 220.40209961 138.09545898 C219.90803256 140.17878318 219.40267203 142.25912559 218.89575195 144.33935547 C215.69171193 157.61000454 213.09925807 170.94012853 211.4074707 184.49365234 C211.28629883 185.41791016 211.16512695 186.34216797 211.0402832 187.29443359 C205.50371907 230.56388593 208.99050933 275.38966927 219.0324707 317.74365234 C219.36021484 319.1496167 219.36021484 319.1496167 219.69458008 320.58398438 C225.29494552 344.08397935 233.44209353 367.80748092 243.44189453 389.79272461 C246.0324707 395.48835629 246.0324707 395.48835629 246.0324707 398.74365234 C-35.4575293 398.74365234 -316.9475293 398.74365234 -606.9675293 398.74365234 C-603.61721652 388.69271401 -603.61721652 388.69271401 -601.8034668 384.19677734 C-593.32588969 362.86643365 -586.10420339 341.13179792 -580.9675293 318.74365234 C-580.63074818 317.35259992 -580.29213076 315.96199111 -579.9519043 314.57177734 C-570.17328835 274.39204532 -566.06124403 230.24647489 -571.65991211 189.06005859 C-571.98200004 186.63468535 -572.25440377 184.20683259 -572.5222168 181.77490234 C-578.25864986 132.21100504 -595.43185931 83.07001851 -621.85498047 40.75512695 C-622.9675293 38.74365234 -622.9675293 38.74365234 -622.9675293 36.74365234 C-622.35159912 36.8188208 -621.73566895 36.89398926 -621.10107422 36.97143555 C-618.11923405 37.33445888 -615.137131 37.69528393 -612.1550293 38.05615234 C-611.18887695 38.17410156 -610.22272461 38.29205078 -609.22729492 38.41357422 C-606.95620514 38.68779249 -604.68418734 38.95436399 -602.41162109 39.21606445 C-599.00432183 39.61111004 -595.60532477 40.05602177 -592.20507812 40.50756836 C-574.89278922 42.71964566 -557.79662328 43.17925906 -540.38098145 43.06622314 C-537.5745755 43.05277079 -534.76832736 43.05807654 -531.96190357 43.06306934 C-509.47552138 43.09360254 -487.2749766 42.21358338 -465.1550293 37.93115234 C-464.45528992 37.79915436 -463.75555054 37.66715637 -463.03460693 37.53115845 C-451.87011773 35.42489815 -440.82780435 33.10907479 -429.9675293 29.74365234 C-428.95561523 29.43057129 -427.94370117 29.11749023 -426.90112305 28.79492188 C-406.40148923 22.36630864 -387.00258489 14.35556825 -367.71606445 4.92944336 C-366.47735596 4.32700806 -366.47735596 4.32700806 -365.21362305 3.71240234 C-364.48844482 3.35597656 -363.7632666 2.99955078 -363.01611328 2.63232422 C-360.93357823 1.72892444 -359.22549488 1.01878492 -356.9675293 0.74365234 C-354.95068359 1.55712891 -354.95068359 1.55712891 -352.79174805 2.88427734 C-351.97617432 3.37234863 -351.16060059 3.86041992 -350.3203125 4.36328125 C-349.44076904 4.90130371 -348.56122559 5.43932617 -347.6550293 5.99365234 C-328.28941271 17.41090828 -308.07197397 26.06998025 -286.9675293 33.74365234 C-286.23099121 34.0140332 -285.49445313 34.28441406 -284.7355957 34.56298828 C-269.67372058 40.04072445 -253.93073603 43.91429164 -238.2175293 46.99365234 C-237.46455566 47.14455322 -236.71158203 47.2954541 -235.93579102 47.45092773 C-218.41763718 50.7123839 -200.86073975 51.14838664 -183.0925293 51.11865234 C-181.92355103 51.11844086 -180.75457275 51.11822937 -179.5501709 51.11801147 C-161.64474097 51.08571496 -144.57019131 50.18614748 -126.9675293 46.74365234 C-124.72693602 46.3409817 -122.48604523 45.93996337 -120.24487305 45.54052734 C-109.39463431 43.5474964 -98.8113385 41.19705071 -88.38110352 37.5703125 C-85.4529747 36.56741505 -82.50920867 35.61684225 -79.56518555 34.66162109 C-59.90699689 28.19182046 -16.82929995 -2.19267464 0 0 Z " fill="#DA002F" transform="translate(778.967529296875,104.25634765625)"/>
<path d="M0 0 C2.3530935 1.17063445 4.51726677 2.38286788 6.75 3.75 C32.28613107 18.65709204 60.35080765 30.60266968 89 38 C90.11600586 38.28858887 91.23201172 38.57717773 92.38183594 38.87451172 C119.28184189 45.71573897 145.00476121 48.13365075 173 50 C173 159.89 173 269.78 173 383 C36.38 383 -100.24 383 -241 383 C-237.62930452 371.76434841 -237.62930452 371.76434841 -235.9140625 367.08203125 C-235.54321533 366.06351074 -235.17236816 365.04499023 -234.7902832 363.99560547 C-234.40573975 362.94518066 -234.02119629 361.89475586 -233.625 360.8125 C-232.81796718 358.5824085 -232.01197126 356.35194149 -231.20703125 354.12109375 C-230.82369629 353.05874512 -230.44036133 351.99639648 -230.04541016 350.90185547 C-220.67059895 324.87920111 -215.441391 298.24747113 -211 271 C-210.855625 270.14059814 -210.71125 269.28119629 -210.5625 268.39575195 C-208.00844887 252.55792428 -207.70019436 236.81668722 -207.6875 220.8125 C-207.6823941 219.30520325 -207.6823941 219.30520325 -207.67718506 217.76745605 C-207.55701469 155.69629618 -223.55358818 98.1430214 -251.93774414 43.19042969 C-253.08034486 40.83432451 -254.05420824 38.44099501 -255 36 C-254.41436279 36.08040527 -253.82872559 36.16081055 -253.2253418 36.24365234 C-208.61124016 42.28878335 -163.6191877 43.61788311 -119 37 C-117.82147461 36.82919922 -116.64294922 36.65839844 -115.42871094 36.48242188 C-77.85056015 30.93543001 -40.28185994 19.26862131 -6.97265625 0.77734375 C-4.3721006 -0.24742966 -2.78835175 -0.37150807 0 0 Z " fill="#DB0030" transform="translate(423,113)"/>
<path d="M0 0 C3.24262393 1.26907007 5.79750815 3.14217906 8.53515625 5.2421875 C47.53507126 33.91659965 93.56869525 54.0369559 141.53515625 60.9921875 C142.6658252 61.16572754 142.6658252 61.16572754 143.81933594 61.34277344 C214.71357599 71.90949564 288.7046098 45.636678 345.78515625 4.4921875 C346.41019043 4.01716797 347.03522461 3.54214844 347.67919922 3.05273438 C350.17365969 1.22564843 351.89620381 0.00713959 355.0390625 -0.06640625 C358.40034964 1.35911615 361.26365899 3.32502083 364.22265625 5.4296875 C405.84782039 33.99739114 455.71429631 49.36183125 505.53515625 54.9921875 C506.29546143 55.08790039 507.0557666 55.18361328 507.83911133 55.28222656 C518.04203339 56.41509504 528.34568384 56.23615356 538.59765625 56.2421875 C539.62604614 56.24286224 540.65443604 56.24353699 541.71398926 56.24423218 C557.53180886 56.22775464 572.91107118 55.65907962 588.53515625 52.9921875 C589.58396973 52.82058105 590.6327832 52.64897461 591.71337891 52.47216797 C611.85597604 49.11556839 632.0397233 44.45517049 650.9609375 36.64453125 C653.53515625 35.9921875 653.53515625 35.9921875 655.53613281 36.74633789 C657.67670973 38.08040775 658.68478539 39.20024266 660.09375 41.2734375 C660.55515381 41.94109131 661.01655762 42.60874512 661.49194336 43.29663086 C661.98057861 44.02116455 662.46921387 44.74569824 662.97265625 45.4921875 C664.04454358 47.04628337 665.11749532 48.59964553 666.19140625 50.15234375 C667.01898437 51.35528076 667.01898437 51.35528076 667.86328125 52.58251953 C670.51397611 56.40295737 673.24162731 60.16645865 675.97265625 63.9296875 C677.06122648 65.43357307 678.14976798 66.93747945 679.23828125 68.44140625 C679.78033203 69.1895459 680.32238281 69.93768555 680.88085938 70.70849609 C683.66433827 74.55097862 686.44390078 78.39628826 689.22265625 82.2421875 C689.75713379 82.98186768 690.29161133 83.72154785 690.84228516 84.48364258 C695.76531978 91.30172075 700.65652862 98.14228596 705.53515625 104.9921875 C701.91183262 110.87109007 698.14404389 116.56537945 694.03515625 122.1171875 C645.50160255 188.9383356 621.83444742 272.55673554 634.11010742 354.52392578 C639.06965588 385.1351523 648.5800166 414.2067614 661.36083984 442.40136719 C662.41683353 444.73113953 663.45596692 447.06764344 664.4921875 449.40625 C676.59728307 476.31955164 692.95572471 501.3735635 710.53515625 524.9921875 C711.58992799 526.42051071 712.644616 527.84889576 713.69921875 529.27734375 C719.44112976 537.02310686 725.33175449 544.60769209 731.53515625 551.9921875 C731.96683105 552.5087793 732.39850586 553.02537109 732.84326172 553.55761719 C738.30539712 560.09201417 743.85773301 566.5201086 749.5859375 572.82421875 C751.98057268 575.48759054 754.2713975 578.21725742 756.53515625 580.9921875 C754.9833414 584.87603156 752.56977001 586.97306063 749.44287109 589.69262695 C748.37066068 590.63758194 747.29929427 591.58349524 746.22865295 592.53022766 C745.66122942 593.02961664 745.09380589 593.52900562 744.5091877 594.0435276 C714.00375671 618.28018899 714.00375671 618.28018899 697.91687012 651.35830688 C697.91336993 657.67416013 698.96415033 663.97088958 700.27600098 670.13607788 C701.9425722 678.01264104 701.57052524 685.48478564 700.96191406 693.47000122 C700.78629997 695.78958078 700.64103616 698.10925017 700.50390625 700.43139648 C695.52937539 782.17625835 672.22314121 864.87441191 622.53515625 930.9921875 C622.08221191 931.59530762 621.62926758 932.19842773 621.16259766 932.81982422 C606.73596782 951.87376574 590.63292944 970.36371324 572.53515625 985.9921875 C571.79910156 986.67796875 571.06304688 987.36375 570.3046875 988.0703125 C563.16862195 994.71629649 555.46743874 1000.55613356 547.66943359 1006.39306641 C545.69805222 1007.87013664 543.73523609 1009.35790076 541.7734375 1010.84765625 C477.90500089 1058.9535522 398.77207334 1085.55676809 320.41015625 1097.6796875 C319.74611786 1097.78314484 319.08207947 1097.88660217 318.3979187 1097.99319458 C310.03040536 1099.27565488 301.6885991 1100.18199845 293.24609375 1100.80078125 C291.48840037 1100.94061462 289.73075033 1101.08099383 287.97314453 1101.22192383 C284.60484916 1101.49087353 281.24151296 1101.69371028 277.86669922 1101.8581543 C265.85488179 1102.66089293 259.89486261 1106.56149538 251.53515625 1114.9921875 C249.84686412 1116.39172223 248.14213073 1117.77208818 246.41015625 1119.1171875 C241.07140188 1123.35196681 235.80316676 1127.66990679 230.53515625 1131.9921875 C228.70205463 1133.49247067 226.86872198 1134.99247158 225.03515625 1136.4921875 C224.12765625 1137.2346875 223.22015625 1137.9771875 222.28515625 1138.7421875 C203.03515625 1154.4921875 203.03515625 1154.4921875 200.29296875 1156.734375 C198.43174097 1158.25815638 196.57240795 1159.78425466 194.71484375 1161.3125 C192.87372148 1162.82539991 191.02750953 1164.33213134 189.17578125 1165.83203125 C187.43501742 1167.25605847 185.71535319 1168.70633271 184.01953125 1170.18359375 C182.85164062 1171.17166016 182.85164062 1171.17166016 181.66015625 1172.1796875 C180.98210938 1172.77136719 180.3040625 1173.36304688 179.60546875 1173.97265625 C177.53515625 1174.9921875 177.53515625 1174.9921875 175.1953125 1174.51953125 C171.6982683 1172.51168355 168.84686359 1170.04672624 165.84765625 1167.3671875 C164.59221436 1166.26830928 163.3357007 1165.17065435 162.078125 1164.07421875 C161.16426025 1163.27491943 161.16426025 1163.27491943 160.23193359 1162.45947266 C157.31541449 1159.93741801 154.29318473 1157.55531786 151.26953125 1155.1640625 C147.79470486 1152.40405754 144.35224655 1149.60534596 140.91015625 1146.8046875 C140.22711426 1146.24918213 139.54407227 1145.69367676 138.84033203 1145.12133789 C137.43740819 1143.9802561 136.03457703 1142.83906034 134.63183594 1141.69775391 C131.2675291 1138.9610227 127.90126045 1136.22670742 124.53515625 1133.4921875 C123.2083284 1132.41406857 121.8815055 1131.33594355 120.5546875 1130.2578125 C117.82333503 1128.03854689 115.09150729 1125.819868 112.359375 1123.6015625 C111.66650391 1123.03888672 110.97363281 1122.47621094 110.25976562 1121.89648438 C108.96562735 1120.84553987 107.67137027 1119.79474163 106.37695312 1118.74414062 C105.77302734 1118.25365234 105.16910156 1117.76316406 104.546875 1117.2578125 C103.8986377 1116.75362793 103.25040039 1116.24944336 102.58251953 1115.72998047 C100.53515625 1113.9921875 100.53515625 1113.9921875 98.53076172 1111.72705078 C89.83848789 1102.79852447 78.83777208 1102.84886265 67.00125122 1101.72268677 C60.68470558 1101.11841606 54.38291031 1100.38305126 48.078125 1099.66796875 C46.19793922 1099.45994881 46.19793922 1099.45994881 44.2797699 1099.24772644 C33.64636469 1098.05645703 23.11891813 1096.49564039 12.59765625 1094.5546875 C11.81894165 1094.41107788 11.04022705 1094.26746826 10.23791504 1094.11950684 C-53.98565768 1082.12095974 -118.1732022 1061.38851827 -173.46484375 1025.9921875 C-174.13467285 1025.56631348 -174.80450195 1025.14043945 -175.49462891 1024.70166016 C-192.38572853 1013.89994723 -208.33607043 1001.60240862 -223.14453125 988.09375 C-225.15882106 986.26935956 -227.20632989 984.50124948 -229.27734375 982.7421875 C-233.00623282 979.49077813 -236.52224838 976.04330827 -240.02734375 972.5546875 C-240.55755127 972.02907227 -241.08775879 971.50345703 -241.6340332 970.96191406 C-309.87167902 902.46145186 -340.0246873 805.5370865 -347.50262451 704.79681396 C-347.65428517 702.58892406 -347.83964582 700.38539001 -348.02587891 698.18017578 C-348.58544134 690.64816556 -348.60153236 683.78747033 -347.13317871 676.35206604 C-344.61300612 663.50966419 -342.09972975 648.86732777 -349.61464691 637.20832825 C-362.28312199 619.66239462 -379.71067196 604.87286174 -396.0408783 590.8343811 C-396.61594305 590.33252131 -397.1910078 589.83066153 -397.78349876 589.31359386 C-399.33298098 587.96404787 -400.89560636 586.6296341 -402.4591217 585.29637146 C-404.46484375 582.9921875 -404.46484375 582.9921875 -404.41575623 580.85145569 C-402.92878279 577.94405625 -400.71675798 575.75130294 -398.46484375 573.4296875 C-394.03682899 568.73715316 -389.87690204 563.91761676 -385.83203125 558.88671875 C-383.6588004 556.22935232 -381.43089699 553.63681458 -379.17382812 551.05126953 C-372.74100504 543.66673546 -366.78726207 536.00559122 -361.0078125 528.1015625 C-359.4380958 525.95562069 -357.85780103 523.81772703 -356.27734375 521.6796875 C-317.262804 468.60532416 -285.56961454 406.48270305 -279.46484375 339.9921875 C-279.38089355 339.09258301 -279.29694336 338.19297852 -279.21044922 337.26611328 C-278.45349423 328.46837351 -278.22220858 319.69275103 -278.21484375 310.8671875 C-278.21416901 310.13018616 -278.21349426 309.39318481 -278.21279907 308.6338501 C-278.3143824 238.01350282 -306.79406552 167.54782937 -349.390625 111.8203125 C-351.05763398 109.54740383 -352.26266279 107.51052898 -353.46484375 104.9921875 C-347.61328125 97.05078125 -341.76171875 89.109375 -335.91015625 81.16796875 C-335.34022949 80.39445068 -334.77030273 79.62093262 -334.18310547 78.82397461 C-333.03126465 77.26085558 -331.87924446 75.69786871 -330.72705078 74.13500977 C-327.7552354 70.10349337 -324.78680422 66.06955501 -321.82421875 62.03125 C-315.14425207 52.93273663 -308.40264218 43.89622834 -301.46484375 34.9921875 C-296.72024062 36.55400746 -291.99229788 38.15261371 -287.28515625 39.82421875 C-264.89308837 47.6761365 -242.0831328 52.6812418 -218.46484375 54.9921875 C-217.51319336 55.0864502 -216.56154297 55.18071289 -215.58105469 55.27783203 C-162.90133795 59.9270208 -108.30593194 52.4189742 -59.46484375 31.9921875 C-58.57732422 31.62254883 -57.68980469 31.25291016 -56.77539062 30.87207031 C-38.40340563 23.11749051 -20.86569401 13.57275907 -5.0234375 1.40625 C-2.46484375 -0.0078125 -2.46484375 -0.0078125 0 0 Z M-9.90234375 34.1796875 C-34.07578534 51.12564279 -61.31810243 61.66354444 -89.46484375 69.9921875 C-90.27663086 70.23807617 -91.08841797 70.48396484 -91.92480469 70.73730469 C-145.95418448 86.94380671 -208.85152575 88.27346251 -263.46484375 73.9921875 C-264.70363281 73.68410156 -265.94242187 73.37601563 -267.21875 73.05859375 C-273.85574676 71.37996948 -280.24093482 69.49935812 -286.51171875 66.7265625 C-288.58508346 65.81621554 -288.58508346 65.81621554 -291.46484375 65.9921875 C-293.38416911 68.28319173 -295.11635229 70.55954967 -296.83984375 72.9921875 C-301.68221285 79.65766319 -306.71628602 86.09800396 -312.01123047 92.41015625 C-315.57790757 96.71589488 -318.61513597 101.18236743 -321.46484375 105.9921875 C-320.87058594 106.86617188 -320.27632812 107.74015625 -319.6640625 108.640625 C-295.45085694 144.46568046 -275.08180871 182.85207306 -264.46484375 224.9921875 C-264.10505447 226.37132567 -263.74438324 227.75023406 -263.3828125 229.12890625 C-240.2456561 318.67298112 -259.34073472 411.29988067 -308.375 499.82421875 C-312.84577294 507.36560046 -317.56521523 514.72354685 -322.46484375 521.9921875 C-322.92101074 522.67361816 -323.37717773 523.35504883 -323.84716797 524.05712891 C-335.13824442 540.88901361 -347.76691158 556.5124317 -360.88671875 571.94921875 C-363.42932089 574.95025976 -365.95081747 577.96721703 -368.46484375 580.9921875 C-367.12484877 583.9990055 -365.66639084 585.98981359 -363.27734375 588.2421875 C-360.76960651 590.67252544 -358.41788138 593.14724408 -356.15234375 595.8046875 C-353.38866346 599.01552505 -350.47864779 602.01485915 -347.46484375 604.9921875 C-343.90608085 608.50807374 -340.57011366 612.11172846 -337.32421875 615.9140625 C-334.27012226 619.32746446 -330.97735766 622.49861804 -327.69921875 625.6953125 C-323.28284473 630.23522146 -322.08979836 632.42490301 -322.15600586 638.93432617 C-322.16016762 639.97224304 -322.16016762 639.97224304 -322.16441345 641.03112793 C-322.17247507 642.5343599 -322.18753998 644.03756693 -322.2087841 645.54067039 C-322.24269981 647.94649736 -322.2582743 650.35185516 -322.26942444 652.75788879 C-322.29224334 657.03101888 -322.33120634 661.30382518 -322.37542725 665.57678223 C-322.45370148 673.14613107 -322.51746152 680.71548888 -322.5546875 688.28515625 C-322.56086782 689.50858766 -322.56086782 689.50858766 -322.567173 690.75673485 C-322.6164154 703.78230085 -322.07158856 716.65130285 -320.71365356 729.61508179 C-320.38177384 732.78582969 -320.10858565 735.9614077 -319.82421875 739.13671875 C-318.29757218 753.94166942 -315.55665717 768.31722166 -312.19384766 782.80908203 C-311.54685593 785.63409145 -310.93974068 788.46307952 -310.3515625 791.30078125 C-305.49259916 814.08695017 -297.16792831 836.57722888 -287.49707031 857.73388672 C-286.49852988 859.91848912 -285.5234191 862.1123634 -284.55078125 864.30859375 C-272.26762335 891.63798561 -255.20399127 918.6445167 -234.6953125 940.5859375 C-232.85160604 942.57494482 -231.07991546 944.59653343 -229.3125 946.65234375 C-224.98338184 951.61427253 -220.37194193 956.27699278 -215.71484375 960.9296875 C-214.38259766 962.2607251 -214.38259766 962.2607251 -213.0234375 963.61865234 C-207.08933511 969.49736688 -201.06643896 974.87621276 -194.46484375 979.9921875 C-192.65040839 981.55243967 -190.83804382 983.11510201 -189.02734375 984.6796875 C-174.61275878 996.67634209 -158.72195898 1006.70548754 -142.46484375 1015.9921875 C-141.59633789 1016.48960449 -140.72783203 1016.98702148 -139.83300781 1017.49951172 C-117.60723425 1030.1390501 -94.4865662 1040.27798769 -70.46484375 1048.9921875 C-69.01271484 1049.5195752 -69.01271484 1049.5195752 -67.53125 1050.05761719 C-31.1199267 1063.10625671 6.83181045 1071.09459398 45.09765625 1076.2421875 C46.04860168 1076.37026794 46.99954712 1076.49834839 47.97930908 1076.63031006 C57.8403165 1077.94053439 67.67620796 1079.08311379 77.60546875 1079.71484375 C78.38927414 1079.76818878 79.17307953 1079.82153381 79.9806366 1079.87649536 C83.60631952 1080.12049792 87.22366991 1080.3240331 90.85571289 1080.44042969 C100.57628836 1081.01531238 105.02645376 1083.90479465 111.53515625 1090.9921875 C113.26994739 1092.44800547 115.01643008 1093.89029223 116.78515625 1095.3046875 C121.09966715 1098.79651624 125.33221153 1102.36799585 129.53515625 1105.9921875 C134.54815231 1110.31170215 139.62053742 1114.54316516 144.7578125 1118.71484375 C147.8791269 1121.27423376 150.95941871 1123.87839705 154.03515625 1126.4921875 C158.16257319 1129.99383083 162.30008066 1133.48179261 166.47265625 1136.9296875 C167.30667969 1137.61933594 168.14070312 1138.30898437 169 1139.01953125 C171.76391991 1141.17019312 174.6006023 1143.08280523 177.53515625 1144.9921875 C178.20160156 1144.37472656 178.86804688 1143.75726562 179.5546875 1143.12109375 C185.07469078 1138.04886696 190.68382977 1133.18290102 196.51953125 1128.47265625 C200.08185847 1125.54250368 203.55986421 1122.52455872 207.03515625 1119.4921875 C211.31718406 1115.75799792 215.61847672 1112.06759474 220.03515625 1108.4921875 C223.76045934 1105.4754116 227.4150891 1102.39289469 231.02807617 1099.2434082 C232.32715496 1098.11525654 233.63338824 1096.99529227 234.9465332 1095.88354492 C237.90432044 1093.3676279 240.59507664 1090.92446682 243.17578125 1088.0078125 C252.36013386 1078.26000267 264.02492604 1079.52538426 276.640625 1079.13867188 C353.29869571 1076.25534424 432.78225685 1052.27883551 498.53515625 1012.9921875 C499.2818457 1012.5477832 500.02853516 1012.10337891 500.79785156 1011.64550781 C532.94530918 992.38072552 562.76700923 968.14705366 587.53515625 939.9921875 C587.9852002 939.486875 588.43524414 938.9815625 588.89892578 938.4609375 C622.35426056 900.76207661 645.60252271 854.1737675 659.53515625 805.9921875 C659.73415527 805.32590332 659.9331543 804.65961914 660.13818359 803.97314453 C672.25103466 763.39273688 675.6673933 721.34047134 675.72265625 679.1796875 C675.72573792 678.30848267 675.72881958 677.43727783 675.73199463 676.53967285 C675.75437201 667.88345591 675.67413132 659.30952619 674.8125 650.69140625 C673.08793368 632.40080292 673.08793368 632.40080292 676.953125 626.5859375 C679.73812574 623.24909951 682.93300278 620.53380732 686.32324219 617.83056641 C690.48798788 614.36913869 694.18122633 610.41412337 697.97265625 606.5546875 C699.44994397 605.09707137 700.92778802 603.64001881 702.40625 602.18359375 C705.77221181 598.82348851 708.92730724 595.33092336 712.02807617 591.72631836 C713.76368854 589.72922543 715.58278755 587.84348745 717.47265625 585.9921875 C718.05917969 585.4146875 718.64570312 584.8371875 719.25 584.2421875 C719.88615234 583.6234375 719.88615234 583.6234375 720.53515625 582.9921875 C718.99189203 579.37177305 716.7961292 576.95813982 714.09765625 574.1171875 C708.70157867 568.31662554 703.82910531 562.18300159 699.0078125 555.90185547 C697.49807625 553.94410398 695.97111365 552.00076902 694.44140625 550.05859375 C674.72316097 524.86808315 658.87999114 497.52010818 644.53515625 468.9921875 C644.1278125 468.19216309 643.72046875 467.39213867 643.30078125 466.56787109 C632.44620009 445.15858623 625.17334406 421.99447062 618.53515625 398.9921875 C618.21490479 397.90333252 618.21490479 397.90333252 617.88818359 396.79248047 C615.1730356 387.43977799 613.55251508 377.89218886 611.91015625 368.3046875 C611.6004187 366.51562988 611.6004187 366.51562988 611.28442383 364.69042969 C608.32167141 346.70443981 607.17673308 328.83126044 607.28515625 310.6171875 C607.28980896 309.21335312 607.28980896 309.21335312 607.29455566 307.78115845 C607.37554497 286.88658416 608.95597817 266.89240864 613.06347656 246.38574219 C613.47373535 244.30386994 613.84753201 242.21487713 614.21484375 240.125 C622.56284645 193.85026899 644.89115888 150.40471252 671.21337891 111.92724609 C673.74314327 108.78735832 673.74314327 108.78735832 674.31323242 105.03344727 C673.47584762 102.83659308 672.47816259 101.2249492 671.0859375 99.33203125 C670.57377686 98.62933105 670.06161621 97.92663086 669.53393555 97.20263672 C668.97746338 96.45256348 668.42099121 95.70249023 667.84765625 94.9296875 C667.27764893 94.15125488 666.7076416 93.37282227 666.12036133 92.57080078 C664.26477205 90.04001611 662.40019974 87.51601096 660.53515625 84.9921875 C659.20919397 83.18912664 657.88367465 81.38573995 656.55859375 79.58203125 C653.22441181 75.04692366 649.88257689 70.51753054 646.53515625 65.9921875 C645.96990234 66.16886963 645.40464844 66.34555176 644.82226562 66.52758789 C624.12679421 72.87808676 603.00723006 77.32469793 581.53515625 79.9921875 C580.64344727 80.10933105 579.75173828 80.22647461 578.83300781 80.34716797 C537.25434231 85.59715707 494.19987124 82.69118033 453.53515625 72.9921875 C452.60654785 72.77868652 451.67793945 72.56518555 450.72119141 72.34521484 C420.12186558 65.2577737 390.94598245 53.23142284 364.51220703 36.25878906 C361.20521885 34.14016043 357.86865659 32.06875788 354.53515625 29.9921875 C353.62636719 30.60964844 352.71757813 31.22710937 351.78125 31.86328125 C328.32031148 47.71757093 303.82342795 61.00905521 277.25927734 70.96679688 C274.90919491 71.85139503 272.57467275 72.76567852 270.2421875 73.6953125 C249.43803794 81.76887315 226.66584552 85.8613153 204.53515625 87.9921875 C203.19287964 88.13140625 203.19287964 88.13140625 201.82348633 88.2734375 C193.04647085 89.10955703 184.28158213 89.235337 175.47265625 89.2421875 C174.68613678 89.24286224 173.89961731 89.24353699 173.08926392 89.24423218 C133.07224873 89.19015035 95.09078019 80.14010278 58.53515625 63.9921875 C57.73062012 63.64075684 56.92608398 63.28932617 56.09716797 62.92724609 C38.61558791 55.22185657 21.96346538 45.61734364 6.54418945 34.33056641 C-0.32879028 29.38321809 -3.20018151 29.18674618 -9.90234375 34.1796875 Z " fill="#010000" transform="translate(423.46484375,24.0078125)"/>
<path d="M0 0 C22.08732599 19.90003739 37.35567426 48.18089163 41.00952148 77.78515625 C42.92383225 116.7384799 34.11749451 151.4680353 7.75952148 180.97265625 C-15.01091706 205.56505523 -47.70115626 219.47692669 -80.88891602 221.0703125 C-91.53459197 221.37169693 -101.62322932 220.13112242 -111.99047852 217.78515625 C-113.25504883 217.50671875 -114.51961914 217.22828125 -115.82250977 216.94140625 C-147.12397985 209.33727948 -174.74051697 188.8773206 -191.99047852 161.78515625 C-208.61638282 134.09660644 -215.7568065 101.75516094 -208.99047852 69.78515625 C-208.8504541 69.09599121 -208.71042969 68.40682617 -208.56616211 67.69677734 C-203.53463784 43.68862155 -191.86184205 23.40702528 -174.99047852 5.78515625 C-174.30727539 5.03878906 -173.62407227 4.29242187 -172.92016602 3.5234375 C-127.13668994 -44.87865068 -48.39467703 -42.14581547 0 0 Z " fill="#080601" transform="translate(685.990478515625,760.21484375)"/>
<path d="M0 0 C43.89 0 87.78 0 133 0 C133.26457815 39.33904003 133.48613322 78.6772406 133.61278395 118.01691582 C133.62779232 122.66191355 133.6433242 127.30690939 133.65917969 131.9519043 C133.66232741 132.87663408 133.66547514 133.80136387 133.66871825 134.75411577 C133.72092586 149.72480477 133.81553528 164.69494048 133.92583355 179.66530132 C134.03807669 195.02782883 134.10471026 210.39006671 134.12906194 225.75298744 C134.14552316 235.23211955 134.19749654 244.70968782 134.2949976 254.18833847 C134.35846143 260.68944007 134.37759502 267.18973405 134.36201653 273.69112288 C134.3543334 277.44207859 134.36604864 281.19030387 134.4304657 284.94077301 C134.81760721 308.63210446 134.81760721 308.63210446 130.40198517 313.69748116 C127.56789907 316.15615426 124.46881343 317.58278711 121 319 C119.41342991 320.01808037 117.8431099 321.06287194 116.3046875 322.15234375 C114.83256404 323.08775212 113.35592667 324.01609211 111.875 324.9375 C111.06498535 325.44345703 110.2549707 325.94941406 109.42041016 326.47070312 C85.21673033 341.45639574 59.73342672 353.26703969 33 363 C31.576875 363.5244873 31.576875 363.5244873 30.125 364.05957031 C27.48320796 365.03054146 24.83700018 365.9877857 22.1875 366.9375 C21.07024536 367.34319214 21.07024536 367.34319214 19.93041992 367.75708008 C13.30952009 370.07523999 6.96977259 371.39159094 0 373 C0 249.91 0 126.82 0 0 Z " fill="#A40044" transform="translate(797,663)"/>
<path d="M0 0 C43.89 0 87.78 0 133 0 C133 122.76 133 245.52 133 372 C127.78638945 371.25519849 123.28059995 370.30175586 118.35546875 368.6640625 C117.63649918 368.42902008 116.9175296 368.19397766 116.17677307 367.95181274 C113.84412395 367.18463259 111.51545224 366.40630965 109.1875 365.625 C108.38920776 365.35844604 107.59091553 365.09189209 106.76843262 364.81726074 C87.21655911 358.26412268 68.15085386 350.60781444 49.88623047 340.99023438 C47.87028203 339.93190058 45.84398017 338.89524629 43.81640625 337.859375 C10.91738788 320.91738788 10.91738788 320.91738788 0 310 C-0.09717832 308.34753584 -0.12371557 306.69088628 -0.12304783 305.03556728 C-0.12503888 303.95372361 -0.12702993 302.87187993 -0.12908131 301.75725311 C-0.12616847 300.55397198 -0.12325563 299.35069085 -0.12025452 298.11094666 C-0.12110894 296.844191 -0.12196337 295.57743534 -0.12284368 294.27229315 C-0.12509102 290.74005333 -0.12106411 287.20784355 -0.11606562 283.67560756 C-0.11176472 279.87259028 -0.11320729 276.06957482 -0.1139679 272.26655579 C-0.11449336 265.67221103 -0.11134422 259.07787613 -0.10573006 252.48353386 C-0.09761809 242.94911143 -0.09500015 233.41469379 -0.09374207 223.88026828 C-0.09155107 208.41293331 -0.08488969 192.9456036 -0.07543945 177.47827148 C-0.06626657 162.4493004 -0.05918513 147.42033074 -0.05493164 132.39135742 C-0.05466892 131.46565152 -0.05440619 130.53994561 -0.05413551 129.58618801 C-0.05283051 124.94239657 -0.05156679 120.29860511 -0.05032361 115.65481365 C-0.0399495 77.10320443 -0.0215104 38.55160493 0 0 Z " fill="#A40044" transform="translate(269,663)"/>
<path d="M0 0 C0 119.46 0 238.92 0 362 C-42.9 362 -85.8 362 -130 362 C-130 252.11 -130 142.22 -130 29 C-117.625 28.01 -117.625 28.01 -105 27 C-100.36451905 26.4362573 -95.79098959 25.85568911 -91.1875 25.125 C-90.06408203 24.9506543 -88.94066406 24.77630859 -87.78320312 24.59667969 C-84.51923568 24.08058227 -81.2591934 23.54535479 -78 23 C-77.11006348 22.85336914 -76.22012695 22.70673828 -75.30322266 22.55566406 C-51.73311181 18.57289021 -22.80396002 0 0 0 Z " fill="#DA002F" transform="translate(733,134)"/>
<path d="M0 0 C7.82804267 0.65233689 15.54040787 1.40824416 23.3125 2.4375 C26.52451238 2.84005179 29.73733555 3.23521214 32.95068359 3.62695312 C34.83446743 3.85741123 36.71773486 4.09219355 38.60009766 4.33398438 C68.86213296 8.12050722 100.22975045 6.64084309 130.59399414 4.71191406 C132.04181393 4.62019779 133.4896488 4.52871916 134.9375 4.4375 C135.61924789 4.3944574 136.30099579 4.35141479 137.00340271 4.30706787 C143.67378502 3.9122413 150.3197107 3.90471854 157 4 C156.53851562 4.89976562 156.07703125 5.79953125 155.6015625 6.7265625 C139.44463752 38.47645624 126.6499958 71.16894033 119 106 C118.81695313 106.82081055 118.63390625 107.64162109 118.4453125 108.48730469 C116.26350018 118.37265362 114.58563711 128.26895068 113.3125 138.3125 C113.19310059 139.25391846 113.07370117 140.19533691 112.95068359 141.1652832 C111.09347233 156.70430912 110.76053419 172.18224544 110.75 187.8125 C110.74899292 188.8535791 110.74798584 189.8946582 110.74694824 190.96728516 C110.75732902 206.86087137 111.38870775 222.29360156 114 238 C114.14985352 238.95551758 114.29970703 239.91103516 114.45410156 240.89550781 C115.51192748 247.62202295 116.7131119 254.31380149 118 261 C118.19352051 262.01400879 118.38704102 263.02801758 118.58642578 264.07275391 C120.84052733 275.75078283 123.29946841 287.1880754 127.14257812 298.45703125 C128.22993679 301.68195377 129.2774964 304.9191781 130.328125 308.15625 C130.97910878 310.14874715 131.63152164 312.14076809 132.28482056 314.13250732 C132.91608931 316.05963769 133.54344105 317.9880498 134.1706543 319.91650391 C136.69714251 327.53953732 139.5599605 334.85835238 142.86547852 342.16748047 C144 345 144 345 144 348 C96.48 348 48.96 348 0 348 C0 233.16 0 118.32 0 0 Z " fill="#DB022F" transform="translate(871,148)"/>
<path d="M0 0 C43.56 0 87.12 0 132 0 C132.226875 13.86 132.45375 27.72 132.6875 42 C132.78764404 46.36476563 132.88778809 50.72953125 132.9909668 55.2265625 C133.04064941 60.5859375 133.04064941 60.5859375 133.04988098 63.10058594 C133.06669606 64.84471566 133.10523141 66.58872288 133.16133118 68.33203125 C133.61171687 83.07390378 133.61171687 83.07390378 129.5827179 87.88879395 C126.80273881 89.92233918 124.08336723 91.48131392 121 93 C117.53678828 95.8686105 114.27110023 98.91519359 111 102 C110.32324219 102.61230469 109.64648438 103.22460938 108.94921875 103.85546875 C92.66000921 119.1653671 82.04496347 141.12296024 76.8125 162.5625 C76.56137451 163.58947998 76.56137451 163.58947998 76.30517578 164.63720703 C72.17021722 182.58949875 72.61047253 202.1777056 77 220 C77.2165625 220.95519531 77.433125 221.91039062 77.65625 222.89453125 C83.56309455 246.90866713 97.65039581 271.3160694 117 287 C118.24718871 287.74974089 119.51199013 288.47082598 120.79127502 289.16438293 C130.77285895 294.77418156 130.77285895 294.77418156 132.83744431 300.2014122 C134.11896289 306.62388793 133.72190317 313.13043722 133.46484375 319.63671875 C133.43682582 321.72842259 133.41549323 323.82022565 133.40052795 325.9120636 C133.34356402 331.38757691 133.1965361 336.8570101 133.02996826 342.33013916 C132.87582151 347.92693825 132.80786853 353.52473172 132.73242188 359.12304688 C132.57210555 370.08468627 132.31651359 381.04183544 132 392 C128.35995405 392.021598 124.71992494 392.03446797 121.07983398 392.04589844 C120.06057579 392.0520517 119.0413176 392.05820496 117.99117279 392.06454468 C108.91556759 392.08585716 100.06028641 391.35814566 91.0625 390.25 C89.50647152 390.06734605 87.95039971 389.88506092 86.39428711 389.703125 C73.85682997 388.21084416 61.41532063 386.29787572 49 384 C47.20317302 383.67811722 45.4062982 383.35650145 43.609375 383.03515625 C28.91537168 380.36254057 14.36225541 377.10350155 0 373 C0 249.91 0 126.82 0 0 Z " fill="#004C97" transform="translate(402,663)"/>
<path d="M0 0 C42.9 0 85.8 0 130 0 C130 123.09 130 246.18 130 373 C122.03546222 375.45062701 114.35352937 377.77798168 106.25 379.5 C105.28336426 379.70794189 104.31672852 379.91588379 103.32080078 380.13012695 C92.81865389 382.33370993 82.2367156 384.00223253 71.62841797 385.60205078 C68.3951846 386.0915706 65.16677033 386.61007309 61.9375 387.125 C50.46279299 388.85302721 38.99961073 390.15426807 27.4375 391.125 C26.43364258 391.21265625 25.42978516 391.3003125 24.39550781 391.390625 C18.61904275 391.85318985 12.89787633 392.041679 7.10180664 392.02294922 C6.41512154 392.02129257 5.72843643 392.01963593 5.02094269 392.01792908 C3.34728992 392.01365038 1.67364331 392.00706676 0 392 C-0.3719235 380.08263494 -0.65559591 368.16666494 -0.82899475 356.24466324 C-0.91225545 350.7074003 -1.02500247 345.17412654 -1.20703125 339.63916016 C-1.38184874 334.28953184 -1.47673096 328.94371894 -1.51803589 323.59145355 C-1.547436 321.55768495 -1.60486113 319.52410882 -1.69168091 317.49198151 C-2.32676135 302.00042919 -2.32676135 302.00042919 1.56118774 296.98680115 C5.34030718 293.37964002 9.56475165 290.69361127 14.09587097 288.13088226 C36.20987329 274.99714363 50.11025741 245.27306031 56.48022461 221.33886719 C58.78910032 210.94946875 59.33984682 200.61056529 59.3125 190 C59.32861328 188.74960937 59.34472656 187.49921875 59.36132812 186.2109375 C59.36586313 177.44930205 58.13890406 169.48221927 56 161 C55.72043457 159.83460693 55.44086914 158.66921387 55.15283203 157.46850586 C49.05591909 132.73065478 33.09835065 108.65641761 13 93 C11.91112991 92.43672501 10.82225983 91.87345001 9.70039368 91.29310608 C0.97745441 86.59025393 0.97745441 86.59025393 -0.72516251 82.07831955 C-1.84716979 76.35319807 -1.49335956 70.54343618 -1.26953125 64.74609375 C-1.25038805 63.08733802 -1.23714384 61.42850351 -1.2298584 59.76965332 C-1.16203742 53.6577284 -0.98053476 47.54749102 -0.8125 41.4375 C-0.544375 27.763125 -0.27625 14.08875 0 0 Z " fill="#004C97" transform="translate(667,663)"/>
<path d="M0 0 C38.94 0 77.88 0 118 0 C118 102.3 118 204.6 118 310 C107.89978678 303.26652452 107.89978678 303.26652452 103.9375 299.5625 C101.11290206 296.94069371 98.26712865 294.36586158 95.34375 291.85546875 C90.20275423 287.36966841 85.38710932 282.57113087 80.5625 277.75 C79.67240234 276.87214844 78.78230469 275.99429687 77.86523438 275.08984375 C71.8049134 269.04280325 66.28640147 262.7313554 61 256 C60.11477661 254.88117432 60.11477661 254.88117432 59.21166992 253.73974609 C34.66281753 222.3094206 18.57326133 186.28166528 8 148 C7.7944751 147.27401611 7.5889502 146.54803223 7.37719727 145.80004883 C-1.08187094 115.67721237 -3.18793401 83.79401473 -3.18530273 52.64501953 C-3.18748702 49.76710143 -3.20572455 46.88956954 -3.22460938 44.01171875 C-3.26891391 29.21810296 -2.43421988 14.6053193 0 0 Z " fill="#004C97" transform="translate(151,663)"/>
<path d="M0 0 C39.6 0 79.2 0 120 0 C133.736826 82.42095598 111.15765379 178.45267025 63 246 C59.80623162 250.45390235 56.47476562 254.75905935 53 259 C52.55462891 259.54688477 52.10925781 260.09376953 51.65039062 260.65722656 C44.67098268 269.16247749 37.12670999 277.07184516 29.375 284.875 C28.51672607 285.74253906 27.65845215 286.61007812 26.77416992 287.50390625 C21.55428688 292.69843316 16.14123364 297.48907725 10.3894043 302.08813477 C8.36599262 303.70715355 6.39667257 305.36727274 4.4375 307.0625 C2 309 2 309 0 309 C0 207.03 0 105.06 0 0 Z " fill="#004C97" transform="translate(930,663)"/>
<path d="M0 0 C3.49574627 1.27904422 6.63228862 3.26084275 9.8449707 5.11865234 C40.26356813 22.27497862 71.52854694 33.0049197 105.98942566 38.26272583 C107.91255984 38.56666028 109.83325503 38.88686956 111.74984741 39.22964478 C119.28076227 40.57305645 126.75785578 41.34352088 134.38793945 41.84912109 C135.64076218 41.93300583 136.8935849 42.01689056 138.18437195 42.10331726 C152.2361916 42.97484494 166.27034137 43.09134029 180.3449707 43.05615234 C181.69249465 43.05572262 183.04001871 43.05556292 184.38754272 43.05566406 C205.87381518 43.04646021 227.14903145 42.05272068 248.53881836 40.02490234 C252.73051795 39.68745735 256.83099193 39.62971394 261.0324707 39.74365234 C260.68273193 40.37601807 260.33299316 41.00838379 259.97265625 41.65991211 C243.13585973 72.29257073 228.49076654 103.94464316 220.40209961 138.09545898 C219.90803256 140.17878318 219.40267203 142.25912559 218.89575195 144.33935547 C215.69171193 157.61000454 213.09925807 170.94012853 211.4074707 184.49365234 C211.28629883 185.41791016 211.16512695 186.34216797 211.0402832 187.29443359 C205.50371907 230.56388593 208.99050933 275.38966927 219.0324707 317.74365234 C219.36021484 319.1496167 219.36021484 319.1496167 219.69458008 320.58398438 C225.29494552 344.08397935 233.44209353 367.80748092 243.44189453 389.79272461 C246.0324707 395.48835629 246.0324707 395.48835629 246.0324707 398.74365234 C-35.4575293 398.74365234 -316.9475293 398.74365234 -606.9675293 398.74365234 C-603.61721652 388.69271401 -603.61721652 388.69271401 -601.8034668 384.19677734 C-593.32588969 362.86643365 -586.10420339 341.13179792 -580.9675293 318.74365234 C-580.63074818 317.35259992 -580.29213076 315.96199111 -579.9519043 314.57177734 C-570.17328835 274.39204532 -566.06124403 230.24647489 -571.65991211 189.06005859 C-571.98200004 186.63468535 -572.25440377 184.20683259 -572.5222168 181.77490234 C-578.25864986 132.21100504 -595.43185931 83.07001851 -621.85498047 40.75512695 C-622.9675293 38.74365234 -622.9675293 38.74365234 -622.9675293 36.74365234 C-622.35159912 36.8188208 -621.73566895 36.89398926 -621.10107422 36.97143555 C-618.11923405 37.33445888 -615.137131 37.69528393 -612.1550293 38.05615234 C-611.18887695 38.17410156 -610.22272461 38.29205078 -609.22729492 38.41357422 C-606.95620514 38.68779249 -604.68418734 38.95436399 -602.41162109 39.21606445 C-599.00432183 39.61111004 -595.60532477 40.05602177 -592.20507812 40.50756836 C-574.89278922 42.71964566 -557.79662328 43.17925906 -540.38098145 43.06622314 C-537.5745755 43.05277079 -534.76832736 43.05807654 -531.96190357 43.06306934 C-509.47552138 43.09360254 -487.2749766 42.21358338 -465.1550293 37.93115234 C-464.45528992 37.79915436 -463.75555054 37.66715637 -463.03460693 37.53115845 C-451.87011773 35.42489815 -440.82780435 33.10907479 -429.9675293 29.74365234 C-428.95561523 29.43057129 -427.94370117 29.11749023 -426.90112305 28.79492188 C-406.40148923 22.36630864 -387.00258489 14.35556825 -367.71606445 4.92944336 C-366.47735596 4.32700806 -366.47735596 4.32700806 -365.21362305 3.71240234 C-364.48844482 3.35597656 -363.7632666 2.99955078 -363.01611328 2.63232422 C-360.93357823 1.72892444 -359.22549488 1.01878492 -356.9675293 0.74365234 C-354.95068359 1.55712891 -354.95068359 1.55712891 -352.79174805 2.88427734 C-351.97617432 3.37234863 -351.16060059 3.86041992 -350.3203125 4.36328125 C-349.44076904 4.90130371 -348.56122559 5.43932617 -347.6550293 5.99365234 C-328.28941271 17.41090828 -308.07197397 26.06998025 -286.9675293 33.74365234 C-286.23099121 34.0140332 -285.49445313 34.28441406 -284.7355957 34.56298828 C-269.67372058 40.04072445 -253.93073603 43.91429164 -238.2175293 46.99365234 C-237.46455566 47.14455322 -236.71158203 47.2954541 -235.93579102 47.45092773 C-218.41763718 50.7123839 -200.86073975 51.14838664 -183.0925293 51.11865234 C-181.92355103 51.11844086 -180.75457275 51.11822937 -179.5501709 51.11801147 C-161.64474097 51.08571496 -144.57019131 50.18614748 -126.9675293 46.74365234 C-124.72693602 46.3409817 -122.48604523 45.93996337 -120.24487305 45.54052734 C-109.39463431 43.5474964 -98.8113385 41.19705071 -88.38110352 37.5703125 C-85.4529747 36.56741505 -82.50920867 35.61684225 -79.56518555 34.66162109 C-59.90699689 28.19182046 -16.82929995 -2.19267464 0 0 Z M-8.7878418 10.63818359 C-9.94985107 11.25878662 -11.11186035 11.87938965 -12.30908203 12.51879883 C-12.92516327 12.85112518 -13.54124451 13.18345154 -14.17599487 13.52584839 C-55.01735908 35.48163408 -98.55123422 49.72239705 -144.4675293 55.99365234 C-145.65878418 56.15696045 -146.85003906 56.32026855 -148.07739258 56.48852539 C-157.41202645 57.69471483 -166.51008186 58.18733191 -175.9675293 58.74365234 C-175.9675293 168.63365234 -175.9675293 278.52365234 -175.9675293 391.74365234 C-40.0075293 391.74365234 95.9524707 391.74365234 236.0324707 391.74365234 C235.26173917 387.8899947 234.42012219 384.89815857 232.9934082 381.30615234 C232.58123047 380.25733887 232.16905273 379.20852539 231.74438477 378.12792969 C231.30320312 377.01111816 230.86202148 375.89430664 230.4074707 374.74365234 C216.52485522 339.01647882 208.25061375 302.84665747 204.0324707 264.74365234 C203.94913986 264.0962912 203.86580902 263.44893005 203.779953 262.7819519 C203.06326545 256.96941125 202.87166394 251.24528203 202.86450195 245.39208984 C202.86117355 244.41615875 202.85784515 243.44022766 202.85441589 242.4347229 C202.84937638 240.37233954 202.84700664 238.3099481 202.84716797 236.24755859 C202.84501083 233.17579661 202.82690486 230.10441207 202.80786133 227.03271484 C202.75419718 208.45250725 204.15017138 190.06573445 206.8449707 171.68115234 C207.10262207 169.92085693 207.10262207 169.92085693 207.36547852 168.125 C213.51888574 127.58846671 227.68774195 87.5710857 247.45043945 51.68115234 C249.11149898 49.15298419 249.11149898 49.15298419 249.0324707 47.74365234 C241.65464846 47.63842192 234.33408221 47.71612214 226.9699707 48.18115234 C226.26426941 48.22569046 225.55856812 48.27022858 224.83148193 48.31611633 C223.34358156 48.41049407 221.85568701 48.50496357 220.36779785 48.59951782 C147.52045849 53.09559727 69.91898019 49.256073 5.85180664 10.38476562 C0.02167684 6.90114261 -2.98806237 7.48932951 -8.7878418 10.63818359 Z M-366.01049805 11.01708984 C-366.98897705 11.50749756 -367.96745605 11.99790527 -368.97558594 12.50317383 C-370.02480225 13.03628174 -371.07401855 13.56938965 -372.1550293 14.11865234 C-390.10388334 22.98425446 -408.72027901 30.22730647 -427.9675293 35.74365234 C-429.37781088 36.16510817 -430.78796218 36.58700015 -432.19799805 37.00927734 C-451.08261164 42.56627798 -470.42614016 45.59323054 -489.9675293 47.74365234 C-490.68544647 47.82590057 -491.40336365 47.9081488 -492.14303589 47.9928894 C-506.29417424 49.59141147 -520.29474076 50.10366422 -534.5300293 50.05615234 C-535.58470398 50.05532654 -536.63937866 50.05450073 -537.72601318 50.0536499 C-562.35050808 50.00962214 -586.58661899 48.14919818 -610.9675293 44.74365234 C-609.54899426 48.45588067 -607.89079167 51.95132582 -606.0612793 55.47802734 C-598.55447698 70.10834175 -591.74005703 84.76967795 -585.93383789 100.17919922 C-585.12431984 102.32755132 -584.29567974 104.46644661 -583.45581055 106.60302734 C-579.72280795 116.4477913 -577.2327265 126.64555173 -574.69506836 136.84912109 C-574.02416519 139.51832513 -573.32464538 142.17803118 -572.6159668 144.83740234 C-558.90925102 197.53360729 -559.94875012 257.18871301 -572.34838867 310.04638672 C-572.95606493 312.69370821 -573.50841222 315.34685627 -574.0456543 318.00927734 C-578.60503151 340.11888177 -586.13538009 361.58878312 -594.27514648 382.61035156 C-594.62996094 383.52703613 -594.98477539 384.4437207 -595.3503418 385.38818359 C-595.66374512 386.18587158 -595.97714844 386.98355957 -596.30004883 387.80541992 C-597.07606561 389.717163 -597.07606561 389.717163 -596.9675293 391.74365234 C-460.3475293 391.74365234 -323.7275293 391.74365234 -182.9675293 391.74365234 C-182.9675293 281.85365234 -182.9675293 171.96365234 -182.9675293 58.74365234 C-192.8675293 58.08365234 -202.7675293 57.42365234 -212.9675293 56.74365234 C-254.71929802 52.3376868 -324.76786912 39.94331252 -355.9675293 8.74365234 C-359.98110822 8.37826623 -362.45854992 9.19446323 -366.01049805 11.01708984 Z " fill="#0D0901" transform="translate(778.967529296875,104.25634765625)"/>
<path d="M0 0 C2.97 0.99 5.94 1.98 9 3 C21.55467888 6.93922111 34.16882274 9.94495779 47 13 C47 128.17 47 243.34 47 362 C31.49 362 15.98 362 0 362 C0 242.54 0 123.08 0 0 Z " fill="#DA002F" transform="translate(824,134)"/>
<path d="M0 0 C3.37700045 1.35080018 6.33162621 2.63904034 9.484375 4.35546875 C10.32967773 4.81002441 11.17498047 5.26458008 12.04589844 5.73291016 C12.93825195 6.2129248 13.83060547 6.69293945 14.75 7.1875 C22.96860762 11.56433287 31.25202287 15.3730801 39.921875 18.7578125 C43 20 43 20 44 21 C44.09769224 22.92346952 44.1237131 24.85058731 44.12304783 26.77653599 C44.12503888 28.03951623 44.12702993 29.30249648 44.12908131 30.60374886 C44.12622771 32.02355757 44.1232821 33.44336609 44.12025452 34.86317444 C44.12069009 36.35721541 44.12156473 37.85125631 44.12284368 39.3452968 C44.12509143 43.47041683 44.12106356 47.59551115 44.11606562 51.7206279 C44.1117653 56.16168795 44.11320725 60.60274644 44.1139679 65.04380798 C44.1144934 72.74476022 44.11134387 80.44570402 44.10573006 88.14665413 C44.09761859 99.28106915 44.0950002 110.41548007 44.09374207 121.54989772 C44.09155099 139.61277593 44.0848894 157.67564963 44.07543945 175.73852539 C44.06626678 193.28963193 44.05918524 210.84073725 44.05493164 228.3918457 C44.05466892 229.47287538 44.05440619 230.55390505 44.05413551 231.66769321 C44.05283051 237.09065636 44.0515668 242.51361952 44.05032361 247.93658268 C44.03994926 292.95772507 44.02205509 337.97886195 44 383 C29.48 383 14.96 383 0 383 C0 256.61 0 130.22 0 0 Z " fill="#FEE802" transform="translate(780,113)"/>
<path d="M0 0 C41.25 0 82.5 0 125 0 C125 36.96 125 73.92 125 112 C73.85 112 22.7 112 -30 112 C-26.62930452 100.76434841 -26.62930452 100.76434841 -24.9140625 96.08203125 C-24.54321533 95.06351074 -24.17236816 94.04499023 -23.7902832 92.99560547 C-23.40573975 91.94518066 -23.02119629 90.89475586 -22.625 89.8125 C-21.81796718 87.5824085 -21.01197126 85.35194149 -20.20703125 83.12109375 C-19.82369629 82.05874512 -19.44036133 80.99639648 -19.04541016 79.90185547 C-9.65847371 53.84554379 -4.54436901 27.26621407 0 0 Z " fill="#FEFEFE" transform="translate(212,384)"/>
<path d="M0 0 C0 119.46 0 238.92 0 362 C-14.19 362 -28.38 362 -43 362 C-43 247.49 -43 132.98 -43 15 C-34.42 12.03 -25.84 9.06 -17 6 C-10.76426822 3.53971714 -10.76426822 3.53971714 -4.5625 0.99609375 C-2 0 -2 0 0 0 Z " fill="#FEEA02" transform="translate(733,134)"/>
<path d="M0 0 C0 36.3 0 72.6 0 110 C-42.57 110 -85.14 110 -129 110 C-131.31 101.09 -133.62 92.18 -136 83 C-137.35699851 78.40960159 -138.71138202 73.89605936 -140.25 69.375 C-140.6207666 68.27712158 -140.9915332 67.17924316 -141.37353516 66.0480957 C-147.94852121 47.05837266 -156.72799393 29.02078701 -165.93774414 11.19042969 C-167.08034486 8.83432451 -168.05420824 6.44099501 -169 4 C-168.41436279 4.08040527 -167.82872559 4.16081055 -167.2253418 4.24365234 C-113.83278801 11.47824792 -59.33905413 11.9850981 -6.47045898 0.44799805 C-4 0 -4 0 0 0 Z " fill="#FEFEFE" transform="translate(337,145)"/>
<path d="M0 0 C42.9 0 85.8 0 130 0 C130 36.96 130 73.92 130 112 C87.1 112 44.2 112 0 112 C0 75.04 0 38.08 0 0 Z " fill="#FEFEFE" transform="translate(466,384)"/>
<path d="M0 0 C14.05015646 1.17084637 28.02481925 3.13664257 42 5 C42 118.19 42 231.38 42 348 C28.14 348 14.28 348 0 348 C0 233.16 0 118.32 0 0 Z " fill="#FEEC02" transform="translate(871,148)"/>
<path d="M0 0 C0 110.88 0 221.76 0 336 C-13.2 336 -26.4 336 -40 336 C-40 226.11 -40 116.22 -40 3 C-27.625 2.01 -27.625 2.01 -15 1 C-7 0 -7 0 0 0 Z " fill="#FEEA02" transform="translate(643,160)"/>
<path d="M0 0 C3.89478625 0.77895725 7.0019001 1.66140149 10.65625 3.07421875 C11.7498584 3.49155273 12.8434668 3.90888672 13.97021484 4.33886719 C15.13504395 4.78391602 16.29987305 5.22896484 17.5 5.6875 C54.43325006 19.51844999 90.8409993 24.55256246 130 27 C130 57.36 130 87.72 130 119 C87.1 119 44.2 119 0 119 C0 79.73 0 40.46 0 0 Z " fill="#FEFEFE" transform="translate(466,136)"/>
<path d="M0 0 C-0.46148438 0.89976562 -0.92296875 1.79953125 -1.3984375 2.7265625 C-17.55536248 34.47645624 -30.3500042 67.16894033 -38 102 C-38.18304687 102.82081055 -38.36609375 103.64162109 -38.5546875 104.48730469 C-40.73649982 114.37265362 -42.41436289 124.26895068 -43.6875 134.3125 C-43.80689941 135.25391846 -43.92629883 136.19533691 -44.04931641 137.1652832 C-45.90652767 152.70430912 -46.23946581 168.18224544 -46.25 183.8125 C-46.25100708 184.8535791 -46.25201416 185.8946582 -46.25305176 186.96728516 C-46.24267098 202.86087137 -45.61129225 218.29360156 -43 234 C-42.85014648 234.95551758 -42.70029297 235.91103516 -42.54589844 236.89550781 C-41.48807252 243.62202295 -40.2868881 250.31380149 -39 257 C-38.80647949 258.01400879 -38.61295898 259.02801758 -38.41357422 260.07275391 C-36.15947267 271.75078283 -33.70053159 283.1880754 -29.85742188 294.45703125 C-28.77006321 297.68195377 -27.7225036 300.9191781 -26.671875 304.15625 C-26.02089122 306.14874715 -25.36847836 308.14076809 -24.71517944 310.13250732 C-24.08391069 312.05963769 -23.45655895 313.9880498 -22.8293457 315.91650391 C-20.30285749 323.53953732 -17.4400395 330.85835238 -14.13452148 338.16748047 C-13 341 -13 341 -13 344 C-30.82 344 -48.64 344 -67 344 C-67 231.47 -67 118.94 -67 3 C-14 0 -14 0 0 0 Z " fill="#FDEB01" transform="translate(1028,152)"/>
<path d="M0 0 C3.02423338 1.20969335 5.83355916 2.36035075 8.71484375 3.8046875 C21.61263547 10.15637152 34.36610591 13.90725459 48.50390625 16.38671875 C50.48763756 16.7347029 52.4682573 17.10915966 54.4296875 17.56640625 C81.16679758 22.0767698 107.55785194 12.74440287 131 1 C131.66 0.67 132.32 0.34 133 0 C133 30.69 133 61.38 133 93 C89.11 93 45.22 93 0 93 C0 62.31 0 31.62 0 0 Z " fill="#A40044" transform="translate(534,962)"/>
<path d="M0 0 C10.51875 -0.0825 21.0375 -0.165 31.875 -0.25 C35.17741699 -0.28641602 38.47983398 -0.32283203 41.88232422 -0.36035156 C44.52310538 -0.37204273 47.16389379 -0.38223354 49.8046875 -0.390625 C50.47766876 -0.40107849 51.15065002 -0.41153198 51.84402466 -0.42230225 C60.44317299 -0.54901714 67.30488397 0.00606052 75 4 C75.90234375 4.45761719 76.8046875 4.91523437 77.734375 5.38671875 C83.37967977 9.02990962 86.75188845 13.14274966 90 19 C90.37511719 19.60328125 90.75023437 20.2065625 91.13671875 20.828125 C93.78817937 27.498768 92.76170704 37.0589627 90.25 43.625 C88.60418804 47.15173992 86.67025247 50.13901521 84 53 C85.4179422 56.13070406 87.16197287 58.50609017 89.375 61.125 C94.72869935 67.9540403 97.73173047 74.78558333 97.3203125 83.5625 C95.84234678 94.80945864 89.79528234 104.95192863 81 112 C73.71134746 116.64373984 68.13738036 119.13003317 59.48730469 119.11352539 C58.83261829 119.11364593 58.1779319 119.11376646 57.50340652 119.11389065 C55.39286096 119.11314672 53.28240468 119.10554225 51.171875 119.09765625 C49.87846191 119.09664917 48.58504883 119.09564209 47.25244141 119.09460449 C42.41828526 119.08937027 37.58414174 119.07540902 32.75 119.0625 C21.9425 119.041875 11.135 119.02125 0 119 C0 79.73 0 40.46 0 0 Z " fill="#020200" transform="translate(694,520)"/>
<path d="M0 0 C43.89 0 87.78 0 133 0 C133 27.39 133 54.78 133 83 C129.01156794 81.67052265 126.24915516 80.69397509 122.75 78.75 C93.54173451 63.97148955 58.93209329 61.83846116 27.89013672 71.8046875 C20.63035425 74.3137864 13.73214524 77.67999615 6.87426758 81.11791992 C4.62613145 82.17595247 2.30695144 83.07721943 0 84 C0 56.28 0 28.56 0 0 Z " fill="#A40044" transform="translate(534,663)"/>
<path d="M0 0 C10.90239577 6.62694645 17.65890756 16.6912086 21.1875 28.9375 C21.72257126 34.69980583 20.40878409 38.34382195 17.375 43.125 C16.97120117 43.77428467 16.56740234 44.42356934 16.15136719 45.0925293 C-2.30049848 73.82240786 -34.42733164 86.46983146 -66.375 94.25 C-96.12164841 100.72444604 -96.12164841 100.72444604 -105.8125 99.9375 C-108.12194454 98.18989216 -110.07671476 96.51388564 -112.125 94.5 C-112.69895508 93.94940918 -113.27291016 93.39881836 -113.86425781 92.83154297 C-115.53113393 91.21678608 -117.17567622 89.58265632 -118.8125 87.9375 C-119.57433594 87.17566406 -120.33617187 86.41382813 -121.12109375 85.62890625 C-126.97846755 79.39439772 -131.36378441 72.202858 -135.8125 64.9375 C-136.39386719 64.03515625 -136.97523438 63.1328125 -137.57421875 62.203125 C-138.8125 59.9375 -138.8125 59.9375 -138.8125 56.9375 C-137.79671875 56.85113281 -136.7809375 56.76476562 -135.734375 56.67578125 C-118.46663815 54.99954728 -107.08893858 49.11837387 -95.59765625 36.109375 C-93.7854057 34.0686894 -93.7854057 34.0686894 -92.8125 31.9375 C-89.14543667 33.72529732 -85.64712232 35.7544257 -82.12890625 37.81640625 C-75.14693572 41.1955387 -65.93987483 41.22666769 -58.6484375 38.94921875 C-43.97863777 32.22082223 -36.61492386 19.77371495 -29.30859375 6.12890625 C-27.65119443 3.70122734 -26.46846916 2.87463773 -23.8125 1.6875 C-23.131875 1.37296875 -22.45125 1.0584375 -21.75 0.734375 C-14.85843472 -2.10005911 -7.13163261 -1.98750417 0 0 Z " fill="#EBB900" transform="translate(632.8125,849.0625)"/>
<path d="M0 0 C-1.0630162 2.14590186 -2.14652737 4.26996558 -3.2890625 6.375 C-7.32859381 14.31232468 -8.43903881 21.13129425 -6.30078125 29.8515625 C-4.34201113 35.71960799 -1.53715336 40.66536088 2.0234375 45.7109375 C3 48 3 48 2.40234375 50.4453125 C0.84096973 53.28970974 -0.91919588 55.86457858 -2.8125 58.5 C-9.68180007 68.72261959 -13.61713705 78.56048425 -12 91 C-9.54137981 102.90489774 -1.31198502 111.66928839 8 119 C3.75177557 130.37625484 -4.4307291 141.93771634 -15.4375 147.5625 C-22.24284675 150.30851711 -27.41835759 151.35499275 -34.38671875 148.71875 C-49.23310821 141.94298572 -59.1141891 131.35076622 -64.93359375 116.08203125 C-65.28550781 115.06496094 -65.63742187 114.04789063 -66 113 C-66.32097656 112.09636719 -66.64195312 111.19273437 -66.97265625 110.26171875 C-71.97314718 93.07398481 -69.78330911 73.24947789 -66 56 C-65.59719249 54.09100981 -65.19440287 52.18201584 -64.79188538 50.27296448 C-64.04240622 46.74130173 -63.27169584 43.21436226 -62.5 39.6875 C-62.35070038 38.99693512 -62.20140076 38.30637024 -62.0475769 37.59487915 C-61.61446235 35.60648558 -61.16856459 33.62139301 -60.71875 31.63671875 C-60.46029297 30.47873779 -60.20183594 29.32075684 -59.93554688 28.12768555 C-57.50016434 19.98580515 -52.05313658 16.89812457 -44.96679688 13.01855469 C-31.41383785 5.99981771 -15.38627148 0 0 0 Z " fill="#EBB900" transform="translate(590,735)"/>
<path d="M0 0 C6.7151788 4.90311653 12.78712518 10.40803946 18.75 16.1875 C19.28512207 16.69684082 19.82024414 17.20618164 20.37158203 17.73095703 C28.33917987 25.32437945 35.37338197 33.21708849 41.75 42.1875 C42.20600586 42.82042969 42.66201172 43.45335937 43.13183594 44.10546875 C44.54399305 46.07880566 45.93209591 48.0668485 47.3125 50.0625 C47.74264404 50.66884277 48.17278809 51.27518555 48.6159668 51.89990234 C53.02280709 58.43353378 53.11771379 64.41701395 51.6875 72.0625 C51.55609619 72.78703369 51.42469238 73.51156738 51.28930664 74.25805664 C47.2850229 94.6524771 47.2850229 94.6524771 41.75 100.1875 C41.36328125 99.59582031 40.9765625 99.00414062 40.578125 98.39453125 C38.98664733 95.97973963 37.37100887 93.5825406 35.75 91.1875 C35.1725 90.32125 34.595 89.455 34 88.5625 C30.37659017 84.73778962 26.21876232 81.94858009 21.75 79.1875 C21.04488281 78.74664063 20.33976563 78.30578125 19.61328125 77.8515625 C10.88327292 73.43170191 0.26015526 74.84625788 -9.25 75.1875 C-9.5903125 74.23230469 -9.930625 73.27710938 -10.28125 72.29296875 C-15.31191008 58.67341993 -21.73660911 48.78361229 -34.4375 41.3125 C-45.53743115 38.03711048 -55.46687263 40.59643257 -65.4375 45.875 C-68.25 46.1875 -68.25 46.1875 -70.17578125 45.02734375 C-77.4224166 39.03624597 -84.53232069 30.85925948 -85.56640625 21.24609375 C-86.08406421 7.10234247 -80.02649609 -3.49177666 -71.5625 -14.4375 C-55.4701603 -30.9647678 -14.93508861 -10.52855541 0 0 Z " fill="#EBB900" transform="translate(668.25,802.8125)"/>
<path d="M0 0 C3.25 1.9375 3.25 1.9375 6 4 C6.99 4.721875 7.98 5.44375 9 6.1875 C12.85999648 9.45833912 15.43650955 13.68376156 18 18 C18.61101562 18.97259766 18.61101562 18.97259766 19.234375 19.96484375 C20.29460714 22.78311386 19.93828156 24.13907899 19 27 C17.73115898 29.31959999 16.44752849 31.48688181 15 33.6875 C14.60135742 34.30036865 14.20271484 34.9132373 13.79199219 35.54467773 C10.03822898 41.18047477 5.72591058 46.15291222 1 51 C0.195625 51.845625 -0.60875 52.69125 -1.4375 53.5625 C-2.283125 54.366875 -3.12875 55.17125 -4 56 C-4.64710938 56.64195312 -5.29421875 57.28390625 -5.9609375 57.9453125 C-27.19386877 78.19066557 -56.71588499 88.45021595 -85.75 88.3125 C-86.98065186 88.30758545 -88.21130371 88.3026709 -89.47924805 88.29760742 C-107.36653907 88.06772396 -123.62286603 83.82873843 -139.6875 75.9375 C-140.35910156 75.60919189 -141.03070312 75.28088379 -141.72265625 74.94262695 C-145.4075678 73.06021997 -148.26274935 71.11145707 -151 68 C-148.14604849 67.39480253 -145.29187294 66.79070462 -142.4375 66.1875 C-141.57286133 66.00445313 -140.70822266 65.82140625 -139.81738281 65.6328125 C-135.85828572 64.79808949 -131.89928528 63.9705908 -127.92578125 63.20703125 C-100.76293269 57.9822963 -73.10012015 49.65487258 -52 31 C-51.32066406 30.46246094 -50.64132812 29.92492187 -49.94140625 29.37109375 C-40.47981813 21.71698251 -34.41244304 11.45004904 -28.82421875 0.8359375 C-22.79851526 -8.53164437 -8.25350906 -4.37481081 0 0 Z " fill="#EBB900" transform="translate(687,886)"/>
<path d="M0 0 C7.37573301 4.54659738 13.11041072 10.34296616 17.21777344 17.99365234 C17.21777344 18.65365234 17.21777344 19.31365234 17.21777344 19.99365234 C13.76293245 21.83362431 10.30334864 23.66449117 6.84277344 25.49365234 C5.85792969 26.01830078 4.87308594 26.54294922 3.85839844 27.08349609 C2.91738281 27.57978516 1.97636719 28.07607422 1.00683594 28.58740234 C-0.29713135 29.27866211 -0.29713135 29.27866211 -1.62744141 29.98388672 C-3.78222656 30.99365234 -3.78222656 30.99365234 -5.78222656 30.99365234 C-6.84580643 29.77981604 -7.85858881 28.52120196 -8.84472656 27.24365234 C-13.30635201 22.05528791 -17.68206566 19.62398455 -24.45019531 18.58349609 C-32.55656423 18.13758864 -38.69863643 20.58309836 -44.89160156 25.75537109 C-52.59793989 33.60500911 -52.17572881 43.41031732 -52.15136719 53.80664062 C-51.90466378 63.89561608 -49.98108195 73.07953239 -42.61035156 80.40380859 C-36.19460977 85.98331053 -31.66407368 86.64217633 -23.16894531 86.38037109 C-17.19787818 85.69855374 -13.51457126 83.81717307 -9.40722656 79.49365234 C-8.02540225 77.36776879 -6.81111919 75.30866077 -5.78222656 72.99365234 C-0.80864968 74.72792564 3.53276297 77.42693191 8.03027344 80.11865234 C8.81853516 80.58658203 9.60679687 81.05451172 10.41894531 81.53662109 C12.35379797 82.68580631 14.28664572 83.83822238 16.21777344 84.99365234 C14.82651551 94.40120593 7.65819618 101.31381779 0.53027344 107.05615234 C-9.86112385 114.69225489 -21.27621226 115.69054271 -33.78222656 114.99365234 C-46.89393319 112.87778609 -59.04502074 106.17525816 -66.97998047 95.36132812 C-78.32914132 78.27651733 -81.58001464 58.12552379 -78.02832031 38.01708984 C-76.49233709 30.73083355 -74.45777006 23.50645749 -70.78222656 16.99365234 C-70.36328125 16.24986328 -69.94433594 15.50607422 -69.51269531 14.73974609 C-63.09275078 4.2874397 -54.06738933 -2.17089147 -42.56347656 -6.10791016 C-28.03887206 -9.5590042 -12.94676106 -7.31048618 0 0 Z " fill="#040300" transform="translate(616.7822265625,526.00634765625)"/>
<path d="M0 0 C1.25200195 0.02707031 1.25200195 0.02707031 2.52929688 0.0546875 C33.01250848 1.19809379 62.67067147 16.47183658 83.375 38.5625 C100.42973377 57.99437638 112.89834489 82.43774001 114 108.625 C114.03867187 109.39521484 114.07734375 110.16542969 114.1171875 110.95898438 C114.20998305 112.82649477 114.29350124 114.69446252 114.375 116.5625 C111.45580022 113.78444834 109.11281091 110.92890228 106.8125 107.625 C88.48174084 82.17123867 65.16820371 60.52666557 35.375 49.5625 C34.26382813 49.14871094 33.15265625 48.73492188 32.0078125 48.30859375 C19.12877216 44.19246393 3.61826232 43.7780192 -9.625 46.5625 C-16.20403985 36.17230115 -20.24651717 28.20124128 -18.625 15.5625 C-15.39676068 5.75821761 -10.6230233 -0.36362427 0 0 Z " fill="#EAB900" transform="translate(606.625,734.4375)"/>
<path d="M0 0 C1.35861152 0.00187687 2.71722373 0.00329471 4.07583618 0.00428772 C7.56408734 0.00801347 11.0522934 0.01775174 14.54052734 0.0289917 C18.13508494 0.03942658 21.72965021 0.0438314 25.32421875 0.04882812 C32.31251968 0.05938875 39.3007833 0.07689772 46.2890625 0.09765625 C46.2890625 8.34765625 46.2890625 16.59765625 46.2890625 25.09765625 C26.4890625 25.09765625 6.6890625 25.09765625 -13.7109375 25.09765625 C-13.7109375 31.36765625 -13.7109375 37.63765625 -13.7109375 44.09765625 C-2.1609375 44.09765625 9.3890625 44.09765625 21.2890625 44.09765625 C21.2890625 52.34765625 21.2890625 60.59765625 21.2890625 69.09765625 C9.7390625 69.09765625 -1.8109375 69.09765625 -13.7109375 69.09765625 C-13.7109375 84.93765625 -13.7109375 100.77765625 -13.7109375 117.09765625 C-21.6309375 117.09765625 -29.5509375 117.09765625 -37.7109375 117.09765625 C-37.7109375 78.81765625 -37.7109375 40.53765625 -37.7109375 1.09765625 C-12.42695384 -0.05161573 -12.42695384 -0.05161573 0 0 Z " fill="#020200" transform="translate(444.7109375,519.90234375)"/>
<path d="M0 0 C-0.17015625 0.77859375 -0.3403125 1.5571875 -0.515625 2.359375 C-2.1028744 9.68773923 -3.63662109 17.02595847 -5.125 24.375 C-5.29547852 25.20612305 -5.46595703 26.03724609 -5.64160156 26.89355469 C-5.80370117 27.69954102 -5.96580078 28.50552734 -6.1328125 29.3359375 C-6.27605957 30.04282715 -6.41930664 30.7497168 -6.56689453 31.47802734 C-9.89060849 50.83200999 -11.00935197 74.76263901 -3 93 C-2.62746094 93.93585938 -2.25492188 94.87171875 -1.87109375 95.8359375 C1.19100246 102.77099861 6.04936534 108.32672368 11 114 C6.78696268 123.24813071 -2.05416908 131.34417908 -11.40625 135.1875 C-18.66998486 137.46288682 -26.40514428 138.3532491 -34 138 C-40.09060971 123.19085254 -43.36523891 109.98714895 -43.31567383 93.89501953 C-43.31252475 91.76672518 -43.33602258 89.63984147 -43.36132812 87.51171875 C-43.41952123 75.10484055 -41.61428762 63.20724426 -37.3125 51.5 C-37.05903809 50.79987793 -36.80557617 50.09975586 -36.54443359 49.37841797 C-30.44489894 33.13616582 -20.88851655 19.57029527 -9 7 C-8.32195313 6.28070312 -7.64390625 5.56140625 -6.9453125 4.8203125 C-2.27986948 0 -2.27986948 0 0 0 Z " fill="#EAB900" transform="translate(525,763)"/>
<path d="M0 0 C4.69789335 -0.13847502 9.38859829 -0.25764748 14.08691406 -0.32958984 C15.68156025 -0.35959836 17.27604366 -0.40042047 18.87011719 -0.45263672 C34.85896673 -0.96291915 34.85896673 -0.96291915 40.76757812 4.50537109 C43.55055664 7.88044924 43.44418835 11.14917951 43.42578125 15.3828125 C42.72719485 19.6768757 40.24618718 22.24999169 37 25 C33.88045872 26.55977064 30.57040616 26.12104126 27.1484375 26.09765625 C26.37440582 26.0962413 25.60037415 26.09482635 24.80288696 26.09336853 C22.32688558 26.08776403 19.85097412 26.07521083 17.375 26.0625 C15.69791797 26.05748558 14.02083453 26.05292257 12.34375 26.04882812 C8.22910403 26.03864336 4.11465285 26.01906894 0 26 C0 17.42 0 8.84 0 0 Z " fill="#E4B400" transform="translate(720,587)"/>
<path d="M0 0 C4.44847842 -0.0921434 8.89361053 -0.17167434 13.34228516 -0.21972656 C14.85346736 -0.23976791 16.36457272 -0.26700905 17.87548828 -0.30175781 C20.05520643 -0.35061109 22.23389431 -0.37304224 24.4140625 -0.390625 C25.7232666 -0.41157227 27.0324707 -0.43251953 28.38134766 -0.45410156 C32.59581564 0.07476839 34.72796925 1.34459983 38 4 C39.56935594 7.13871188 39.35201103 9.53855822 39 13 C36.5625 15.875 36.5625 15.875 34 18 C33.505 18.495 33.505 18.495 33 19 C30.55169574 19.08843793 28.13179401 19.11528752 25.68359375 19.09765625 C24.95253922 19.0962413 24.22148468 19.09482635 23.46827698 19.09336853 C21.12464368 19.08775408 18.78110461 19.07519922 16.4375 19.0625 C14.85221492 19.05748686 13.26692834 19.05292363 11.68164062 19.04882812 C7.78769457 19.03862921 3.89395323 19.01905687 0 19 C0 12.73 0 6.46 0 0 Z " fill="#E0B100" transform="translate(720,544)"/>
<path d="M0 0 C0.66 0.33 1.32 0.66 2 1 C-4 7 -10 13 -16 19 C-15.42118732 15.45177554 -14.17307641 13.81577197 -11.62109375 11.328125 C-10.94755859 10.66425781 -10.27402344 10.00039063 -9.58007812 9.31640625 C-8.87302734 8.63449219 -8.16597656 7.95257812 -7.4375 7.25 C-6.72658203 6.55261719 -6.01566406 5.85523438 -5.28320312 5.13671875 C-3.52869286 3.4175342 -1.76756648 1.70574128 0 0 Z " fill="#D3AA04" transform="translate(1114,635)"/>
<path d="M0 0 C0.66 0.33 1.32 0.66 2 1 C1.26394531 1.72445312 0.52789063 2.44890625 -0.23046875 3.1953125 C-7.43016311 10.30935914 -7.43016311 10.30935914 -14 18 C-14.33 17.01 -14.66 16.02 -15 15 C-14.34 15 -13.68 15 -13 15 C-12.78601562 14.45859375 -12.57203125 13.9171875 -12.3515625 13.359375 C-10.51922057 10.1607203 -8.00203394 7.79035516 -5.375 5.25 C-4.859375 4.74339844 -4.34375 4.23679687 -3.8125 3.71484375 C-2.54616661 2.47196098 -1.2736856 1.23534724 0 0 Z " fill="#D1A804" transform="translate(1140,608)"/>
<path d="M0 0 C3.21524305 1.40844718 5.32183868 3.10344786 7.75 5.625 C8.67039062 6.57246094 8.67039062 6.57246094 9.609375 7.5390625 C10.29773438 8.26222656 10.29773438 8.26222656 11 9 C10.67 9.99 10.34 10.98 10 12 C8.33032474 10.19019128 6.66417692 8.3773524 5 6.5625 C4.28457031 5.7880957 4.28457031 5.7880957 3.5546875 4.99804688 C0 1.11328125 0 1.11328125 0 0 Z " fill="#D0A804" transform="translate(74,626)"/>
<path d="M0 0 C0.99 0.33 1.98 0.66 3 1 C-0.3 3.97 -3.6 6.94 -7 10 C-7 7 -7 7 -5.46875 5.17578125 C-4.8190625 4.56089844 -4.169375 3.94601562 -3.5 3.3125 C-2.8503125 2.68988281 -2.200625 2.06726563 -1.53125 1.42578125 C-0.77328125 0.72001953 -0.77328125 0.72001953 0 0 Z " fill="#D1A804" transform="translate(989,983)"/>
</svg>
